<svg xmlns="http://www.w3.org/2000/svg" viewBox="0 0 800 800" width="800" height="800">
  <rect width="800" height="800" fill="#0d1520" />
  <rect x="28" y="28" width="744" height="744" rx="24" fill="#121c2a" stroke="rgba(180,210,230,0.55)" />
  <text x="400" y="78" text-anchor="middle" fill="rgba(190,210,230,0.75)" font-size="26" font-family="Inter,Arial,sans-serif">5 Whys</text>
  <text x="120" y="166" fill="rgba(190,210,230,0.75)" font-size="16">Symptom</text>
    <text x="640" y="166" fill="rgba(190,210,230,0.75)" font-size="16">Root Cause</text><rect x="170" y="170" width="460" height="76" rx="14" fill="#00f0ff" fill-opacity="0.22" stroke="#00f0ff" />
      <text x="400" y="218" text-anchor="middle" fill="#dbe8f4" font-size="22">Why?</text>
      <circle cx="194" cy="194" r="12" fill="#00f0ff" />
      <text x="194" y="199" text-anchor="middle" fill="#0d1520" font-size="11">1</text><line x1="400" y1="250" x2="400" y2="270" stroke="rgba(180,210,230,0.55)" />
        <polygon points="394,260 406,260 400,270" fill="rgba(180,210,230,0.55)" /><rect x="198" y="278" width="420" height="76" rx="14" fill="#ff8c42" fill-opacity="0.22" stroke="#ff8c42" />
      <text x="408" y="326" text-anchor="middle" fill="#dbe8f4" font-size="22">Why?</text>
      <circle cx="222" cy="302" r="12" fill="#ff8c42" />
      <text x="222" y="307" text-anchor="middle" fill="#0d1520" font-size="11">2</text><line x1="408" y1="358" x2="408" y2="378" stroke="rgba(180,210,230,0.55)" />
        <polygon points="402,368 414,368 408,378" fill="rgba(180,210,230,0.55)" /><rect x="226" y="386" width="380" height="76" rx="14" fill="#9d7bff" fill-opacity="0.22" stroke="#9d7bff" />
      <text x="416" y="434" text-anchor="middle" fill="#dbe8f4" font-size="22">Why?</text>
      <circle cx="250" cy="410" r="12" fill="#9d7bff" />
      <text x="250" y="415" text-anchor="middle" fill="#0d1520" font-size="11">3</text><line x1="416" y1="466" x2="416" y2="486" stroke="rgba(180,210,230,0.55)" />
        <polygon points="410,476 422,476 416,486" fill="rgba(180,210,230,0.55)" /><rect x="254" y="494" width="340" height="76" rx="14" fill="#6b7b8c" fill-opacity="0.22" stroke="#6b7b8c" />
      <text x="424" y="542" text-anchor="middle" fill="#dbe8f4" font-size="22">Why?</text>
      <circle cx="278" cy="518" r="12" fill="#6b7b8c" />
      <text x="278" y="523" text-anchor="middle" fill="#0d1520" font-size="11">4</text><line x1="424" y1="574" x2="424" y2="594" stroke="rgba(180,210,230,0.55)" />
        <polygon points="418,584 430,584 424,594" fill="rgba(180,210,230,0.55)" /><rect x="282" y="602" width="300" height="76" rx="14" fill="#00f0ff" fill-opacity="0.22" stroke="#00f0ff" />
      <text x="432" y="650" text-anchor="middle" fill="#dbe8f4" font-size="22">Root Cause</text>
      <circle cx="306" cy="626" r="12" fill="#00f0ff" />
      <text x="306" y="631" text-anchor="middle" fill="#0d1520" font-size="11">5</text>
</svg>