<svg xmlns="http://www.w3.org/2000/svg" viewBox="0 0 800 800" width="800" height="800">
  <rect width="800" height="800" fill="#0d1520" />
  <rect x="28" y="28" width="744" height="744" rx="24" fill="#121c2a" stroke="rgba(180,210,230,0.55)" />
  <text x="400" y="78" text-anchor="middle" fill="rgba(190,210,230,0.75)" font-size="26" font-family="Inter,Arial,sans-serif">AARRR</text>
  <polygon points="120,180 680,180 645,274 155,274" fill="#00f0ff" fill-opacity="0.22" stroke="#00f0ff" />
    <text x="400" y="235" text-anchor="middle" fill="#dbe8f4" font-size="22">Acquisition</text>
    <circle cx="146" cy="206" r="13" fill="#00f0ff" />
    <text x="146" y="211" text-anchor="middle" fill="#0d1520" font-size="11">1</text><polygon points="155,274 645,274 610,368 190,368" fill="#ff8c42" fill-opacity="0.32" stroke="#ff8c42" />
    <text x="400" y="329" text-anchor="middle" fill="#dbe8f4" font-size="22">Activation</text>
    <circle cx="181" cy="300" r="13" fill="#ff8c42" />
    <text x="181" y="305" text-anchor="middle" fill="#0d1520" font-size="11">2</text><polygon points="190,368 610,368 575,462 225,462" fill="#9d7bff" fill-opacity="0.42000000000000004" stroke="#9d7bff" />
    <text x="400" y="423" text-anchor="middle" fill="#dbe8f4" font-size="22">Retention</text>
    <circle cx="216" cy="394" r="13" fill="#9d7bff" />
    <text x="216" y="399" text-anchor="middle" fill="#0d1520" font-size="11">3</text><polygon points="225,462 575,462 540,556 260,556" fill="#6b7b8c" fill-opacity="0.52" stroke="#6b7b8c" />
    <text x="400" y="517" text-anchor="middle" fill="#dbe8f4" font-size="22">Revenue</text>
    <circle cx="251" cy="488" r="13" fill="#6b7b8c" />
    <text x="251" y="493" text-anchor="middle" fill="#0d1520" font-size="11">4</text><polygon points="260,556 540,556 505,650 295,650" fill="#00f0ff" fill-opacity="0.62" stroke="#00f0ff" />
    <text x="400" y="611" text-anchor="middle" fill="#dbe8f4" font-size="22">Referral</text>
    <circle cx="286" cy="582" r="13" fill="#00f0ff" />
    <text x="286" y="587" text-anchor="middle" fill="#0d1520" font-size="11">5</text>
</svg>