<svg xmlns="http://www.w3.org/2000/svg" viewBox="0 0 800 800" width="800" height="800">
  <rect width="800" height="800" fill="#0d1520" />
  <rect x="28" y="28" width="744" height="744" rx="24" fill="#121c2a" stroke="rgba(180,210,230,0.55)" />
  <text x="400" y="78" text-anchor="middle" fill="rgba(190,210,230,0.75)" font-size="26" font-family="Inter,Arial,sans-serif">Double Loop Learning</text>
  <circle cx="400" cy="430" r="200" fill="none" stroke="rgba(180,210,230,0.55)" stroke-width="2" /><circle cx="400" cy="230" r="52" fill="#00f0ff" fill-opacity="0.2" stroke="#00f0ff" />
    <text x="400" y="237" text-anchor="middle" fill="#dbe8f4" font-size="18">Action</text><circle cx="360" cy="190" r="14" fill="#00f0ff" />
    <text x="360" y="195" text-anchor="middle" fill="#0d1520" font-size="12">1</text><circle cx="573.2050807568878" cy="530" r="52" fill="#ff8c42" fill-opacity="0.2" stroke="#ff8c42" />
    <text x="573.2050807568878" y="537" text-anchor="middle" fill="#dbe8f4" font-size="18">Result</text><circle cx="533.2050807568878" cy="490" r="14" fill="#ff8c42" />
    <text x="533.2050807568878" y="495" text-anchor="middle" fill="#0d1520" font-size="12">2</text><circle cx="226.7949192431123" cy="530.0000000000001" r="52" fill="#9d7bff" fill-opacity="0.2" stroke="#9d7bff" />
    <text x="226.7949192431123" y="537.0000000000001" text-anchor="middle" fill="#dbe8f4" font-size="18">Assumptions</text><circle cx="186.7949192431123" cy="490.0000000000001" r="14" fill="#9d7bff" />
    <text x="186.7949192431123" y="495.0000000000001" text-anchor="middle" fill="#0d1520" font-size="12">3</text><path d="M 400 230 Q 510.85125168440817 366 573.2050807568878 530" fill="none" stroke="rgba(180,210,230,0.55)" stroke-width="2.4" /><polygon points="528.171759760097,504 518.171759760097,500 526.171759760097,492" fill="rgba(180,210,230,0.55)" transform="rotate(59.99999999999999 528.171759760097 504)" /><path d="M 573.2050807568878 530 Q 400.00000000000006 558 226.7949192431123 530.0000000000001" fill="none" stroke="rgba(180,210,230,0.55)" stroke-width="2.4" /><polygon points="271.8282402399031,504.0000000000001 261.8282402399031,500.0000000000001 269.8282402399031,492.0000000000001" fill="rgba(180,210,230,0.55)" transform="rotate(180 271.8282402399031 504.0000000000001)" /><path d="M 226.7949192431123 530.0000000000001 Q 289.1487483155919 366.00000000000006 400 230" fill="none" stroke="rgba(180,210,230,0.55)" stroke-width="2.4" /><polygon points="400,282 390,278 398,270" fill="rgba(180,210,230,0.55)" transform="rotate(-60.00000000000002 400 282)" />
</svg>